<svg xmlns="http://www.w3.org/2000/svg" version="1.1" width="1254" height="1254"><metadata><rdf:RDF xmlns:rdf="http://www.w3.org/1999/02/22-rdf-syntax-ns#" xmlns:dc="http://purl.org/dc/elements/1.1/"><rdf:Description><dc:creator>RealFaviconGenerator</dc:creator><dc:source>https://realfavicongenerator.net</dc:source></rdf:Description></rdf:RDF></metadata><path d="M0 0 C1.51372403 -0.0011555 3.02744778 -0.00274588 4.54117095 -0.00472724 C8.65775294 -0.00886351 12.77431144 -0.00685574 16.89089346 -0.00374103 C21.34976445 -0.00146294 25.80863162 -0.00497896 30.26750183 -0.00772095 C38.99621452 -0.01215613 47.72491858 -0.01121098 56.45363159 -0.00830831 C63.57429144 -0.00603992 70.69494888 -0.00574796 77.81560898 -0.00683212 C79.3424216 -0.00706197 79.3424216 -0.00706197 80.90007892 -0.00729647 C82.96907315 -0.00761625 85.03806738 -0.00794046 87.10706161 -0.00826906 C106.50063589 -0.01111869 125.89420545 -0.00784778 145.28777896 -0.00246869 C161.81025307 0.00197327 178.33272012 0.00124411 194.85519409 -0.00338745 C214.12558924 -0.00878694 233.3959802 -0.0108173 252.66637599 -0.00777519 C254.73891695 -0.00745673 256.81145791 -0.00714235 258.88399887 -0.00683212 C260.41269473 -0.00660071 260.41269473 -0.00660071 261.97227333 -0.00636462 C269.03785333 -0.0055135 276.10343058 -0.00695911 283.16901016 -0.00931168 C307.91034771 -0.01660259 332.65121874 0.00850521 357.39230347 0.12698364 C358.46790577 0.13184766 358.46790577 0.13184766 359.5652374 0.13680995 C367.83372785 0.17453041 376.10148889 0.23482971 384.36938071 0.3444674 C386.48865037 0.3707754 388.60800068 0.39147894 390.72738862 0.40529037 C410.61087773 0.5488139 430.60388909 2.90662854 449.76730347 8.37698364 C451.36324341 8.82086426 451.36324341 8.82086426 452.99142456 9.27371216 C468.86478669 13.82746761 483.86034544 20.32581718 498.39230347 28.12698364 C499.00831421 28.45698364 499.62432495 28.78698364 500.25900269 29.12698364 C508.41901011 33.54222676 516.04897981 38.45007231 523.39230347 44.12698364 C524.23406128 44.77538208 525.07581909 45.42378052 525.94308472 46.09182739 C569.54942502 80.3394197 600.55990873 128.75810228 608.39230347 184.12698364 C614.32343782 236.434694 604.37670015 289.18758472 574.39230347 333.12698364 C574.0305603 333.65856079 573.66881714 334.19013794 573.29611206 334.73782349 C564.82229654 347.11178049 555.20589276 358.31057155 544.99777222 369.27542114 C542.05367888 372.49759227 539.21388439 375.79765226 536.39230347 379.12698364 C537.33589722 379.92620239 538.27949097 380.72542114 539.25167847 381.54885864 C584.02695843 419.73505577 609.34269836 469.67491507 614.16525269 528.41311646 C615.48819325 550.052441 615.05171069 571.73837937 611.39230347 593.12698364 C611.25308472 594.00096802 611.11386597 594.87495239 610.97042847 595.77542114 C603.20675642 644.2264856 581.61752886 691.74394821 547.81808472 727.54885864 C545.70544403 729.79417725 543.69449731 732.08598574 541.70480347 734.43948364 C538.23844926 738.40914923 534.4576582 741.78093338 530.39230347 745.12698364 C529.87136108 745.56026978 529.3504187 745.99355591 528.81369019 746.43997192 C502.43399007 768.31310905 472.71498117 783.72260758 439.51730347 792.43948364 C438.65854614 792.67022583 437.79978882 792.90096802 436.91500854 793.13870239 C415.60100544 798.37622055 393.83459811 798.56267668 372.03119802 798.47518051 C367.90070338 798.46201479 363.77021925 798.46662383 359.63970947 798.46888733 C352.51262488 798.47044733 345.38562378 798.46117306 338.25856018 798.44417381 C327.95450722 798.41961314 317.65049392 798.41196126 307.34641486 798.40820984 C290.62177943 798.40167185 273.89718832 798.38178338 257.1725769 798.353302 C240.94276142 798.32569228 224.71295806 798.3044927 208.48312378 798.29177856 C207.47982464 798.29099039 206.4765255 798.29020222 205.44282335 798.28939017 C200.40870257 798.28547457 195.3745817 798.28168356 190.34046078 798.27795446 C148.6910442 798.24694132 107.04167639 798.19417864 65.39230347 798.12698364 C66.3511743 796.99733825 67.31159538 795.86900862 68.27267456 794.74124146 C68.80734344 794.11276306 69.34201233 793.48428467 69.8928833 792.83676147 C71.48992133 791.0156707 73.15488595 789.42474615 75.01730347 787.87698364 C78.55026649 784.87193464 81.98439896 781.77233282 85.39230347 778.62698364 C88.64877764 775.62696435 91.91437711 772.64442226 95.26730347 769.75198364 C99.06032912 766.46681079 102.7236195 763.0493568 106.39230347 759.62698364 C110.69983963 755.60925806 115.02920348 751.63576499 119.48605347 747.78323364 C125.59919631 742.47181445 131.55662706 736.98310846 137.51730347 731.50198364 C141.38603098 727.94450511 145.29564333 724.4440891 149.26730347 721.00198364 C152.01053765 718.58148289 154.70114915 716.10497722 157.39230347 713.62698364 C161.30211942 710.02685608 165.25096814 706.48280759 169.26730347 703.00198364 C172.0105384 700.58148223 174.7011159 698.10494187 177.39230347 695.62698364 C181.3481953 691.98530475 185.33791971 688.39198865 189.40011597 684.86917114 C191.75250982 682.81197966 194.07265313 680.7210145 196.39230347 678.62698364 C200.01736595 675.35666734 203.64253523 672.08963925 207.36854267 668.93425369 C209.39624456 667.19109155 209.39624456 667.19109155 211.0314436 665.29563522 C214.9806726 661.13235971 217.97791643 659.64420522 223.73124695 659.26742554 C226.25719032 659.23867096 228.78374902 659.24814499 231.30953979 659.28811646 C232.70845499 659.28513508 234.10736646 659.2790321 235.5062561 659.27006531 C238.50819516 659.25747334 241.50896746 659.26676771 244.51081276 659.29337311 C249.2762077 659.33544659 254.04077517 659.32802506 258.80628967 659.31442261 C266.36258967 659.29866735 273.91839827 659.31584093 281.47463673 659.34709334 C294.95646202 659.40226723 308.43828973 659.41080132 321.92020625 659.39358974 C326.63744218 659.38897513 331.3542135 659.40184223 336.07137197 659.42829108 C368.54658886 659.59307442 395.19060924 656.40383896 420.39230347 634.12698364 C421.02781128 633.57526489 421.66331909 633.02354614 422.31808472 632.45510864 C439.12316448 616.84763226 449.03034401 591.81614491 450.59713745 569.165802 C450.69497107 566.08715488 450.7213093 563.01961484 450.70480347 559.93948364 C450.69988892 558.84668091 450.69497437 557.75387817 450.68991089 556.62796021 C450.31305332 530.42959519 440.23037316 507.65709087 421.57980347 489.36917114 C399.29510631 469.56727992 370.29919978 465.93380963 341.584198 466.01345825 C340.16343182 466.01374123 338.7426655 466.01358023 337.32189941 466.01301575 C333.51291937 466.01273209 329.70397165 466.01855817 325.89499903 466.0255897 C321.89653347 466.03189593 317.89806694 466.03243274 313.89959717 466.03361511 C306.34937214 466.03670719 298.79916181 466.0448916 291.24894321 466.0549646 C282.64418938 466.06619213 274.0394348 466.07165283 265.43467546 466.07666004 C247.7538765 466.08707629 230.07309117 466.10463408 212.39230347 466.12698364 C208.21555728 490.63156139 204.35649674 515.17176362 200.70901489 539.76034546 C200.07616581 544.0228331 199.44018352 548.28485285 198.80441284 552.54690552 C198.67909494 553.3877173 198.55377705 554.22852909 198.42466164 555.09482002 C197.80239131 559.26942841 197.17892523 563.44385196 196.55303955 567.61791992 C195.46555319 574.87775688 194.38512177 582.13804417 193.35277843 589.40595913 C192.9149432 592.48045068 192.46895978 595.55373117 192.02185249 598.62688637 C191.8156469 600.05970987 191.61337886 601.49310645 191.41535759 602.92708397 C191.14369118 604.89267122 190.85732735 606.85621027 190.57028198 608.8196106 C190.41431046 609.92254959 190.25833893 611.02548859 190.09764099 612.16184998 C189.00311579 616.76307053 186.88183309 620.02861803 183.27511597 623.03713989 C182.67473511 623.54599731 182.07435425 624.05485474 181.45578003 624.57913208 C180.81608276 625.1105481 180.1763855 625.64196411 179.51730347 626.18948364 C178.15895565 627.33996807 176.8022144 628.49235171 175.44699097 629.64651489 C174.7660437 630.22610962 174.08509644 630.80570435 173.3835144 631.40286255 C170.39950811 633.98661101 167.51978176 636.67585566 164.64230347 639.37698364 C159.86782843 643.84577582 154.91867355 648.01074212 149.81808472 652.10745239 C147.05357744 654.40898261 144.55548272 656.8730828 142.05636597 659.45510864 C139.66693826 661.85575432 137.11114392 664.0431916 134.54855347 666.25588989 C128.5273656 671.48079748 122.6588105 676.88199314 116.76730347 682.25198364 C113.04434279 685.64123356 109.28635631 688.98133118 105.48605347 692.28323364 C102.9281132 694.53574821 100.41051367 696.83015456 97.89230347 699.12698364 C94.12879826 702.55963125 90.33100996 705.94253374 86.48605347 709.28323364 C82.96417877 712.38458599 79.51153325 715.56211697 76.04464722 718.72463989 C73.86769351 720.69640209 71.67391672 722.64063702 69.45480347 724.56448364 C65.5056298 727.9946694 61.66208042 731.53701882 57.81442261 735.0798645 C54.42767728 738.19297663 50.99324098 741.23950447 47.51730347 744.25198364 C44.23721766 747.146177 41.0296229 750.11917256 37.8119812 753.08230591 C34.45846799 756.16512722 31.05683223 759.17967912 27.61105347 762.15823364 C23.90990258 765.44235344 20.3024068 768.82967974 16.69528198 772.21658325 C12.50062484 776.12698364 12.50062484 776.12698364 11.39230347 776.12698364 C12.02557759 766.95430308 13.18770893 757.90116364 14.51730347 748.80667114 C14.73808369 747.27869793 14.9586 745.75068657 15.17887878 744.22264099 C15.78376709 740.03471109 16.3936568 735.84752338 17.00470352 731.66048813 C17.39681208 728.97105955 17.78751836 726.28143077 18.17779541 723.59173584 C23.46462896 687.16271867 28.89898592 650.75564955 34.34465122 614.35009575 C38.03102008 589.705474 41.70819908 565.0597112 45.32199097 540.40432739 C45.47910175 539.33256067 45.63621254 538.26079395 45.79808426 537.15654945 C47.04877383 528.62334266 48.2983715 520.08997595 49.54758453 511.55655289 C52.88320045 488.77379758 56.23497219 465.99435573 59.73605347 443.23635864 C59.87316364 442.34476233 60.01027382 441.45316601 60.15153885 440.53455162 C60.70784367 436.91758174 61.26441428 433.30065281 61.82110023 429.68374157 C68.27738537 387.7319311 74.38542624 345.73401752 80.38023043 303.71422672 C80.70027846 301.47119678 81.02049082 299.22819037 81.34075546 296.98519135 C85.25015784 269.60327769 89.14393993 242.21928103 92.92892456 214.81985474 C93.03258736 214.0696798 93.13625017 213.31950487 93.24305427 212.54659736 C94.2426023 205.31194347 95.24046487 198.07706482 96.23193121 190.84129858 C96.50488715 188.85064485 96.77868234 186.86010625 97.05249214 184.86956978 C97.38335642 182.46425714 97.71291266 180.05876399 98.04080009 177.65304375 C99.03249149 170.45467021 100.15917928 163.28793889 101.39230347 156.12698364 C100.70208036 156.12459529 100.01185726 156.12220694 99.30071831 156.11974621 C82.49961652 156.06058879 65.69867643 155.98503404 48.89773369 155.89126873 C40.77288994 155.84631903 32.64808994 155.80690248 24.52316284 155.7805481 C17.44078687 155.7575613 10.35854945 155.72415572 3.27628338 155.67828208 C-0.47312081 155.65435894 -4.22238785 155.63562426 -7.97186661 155.62936974 C-12.15943173 155.6221891 -16.34652003 155.59174643 -20.53396606 155.55935669 C-21.77474411 155.56079178 -23.01552216 155.56222687 -24.29389954 155.56370544 C-35.16383318 155.44458839 -35.16383318 155.44458839 -39.60769653 152.12698364 C-41.68722969 148.89202301 -41.86058815 146.2808529 -41.86839294 142.4785614 C-41.87547775 141.32754944 -41.88256256 140.17653748 -41.88986206 138.99064636 C-41.88738464 137.73183151 -41.88490723 136.47301666 -41.88235474 135.17605591 C-41.88670305 133.83383907 -41.8918866 132.49162473 -41.89784241 131.14941406 C-41.91123077 127.50684141 -41.91181128 123.86437252 -41.90927911 120.22178006 C-41.90820929 117.18000037 -41.91309302 114.13824167 -41.91788453 111.09646648 C-41.92897913 103.92001808 -41.92941738 96.74362202 -41.92337036 89.56716919 C-41.91732951 82.16558593 -41.92964442 74.76419271 -41.95094043 67.36264187 C-41.96855744 61.00583547 -41.97455764 54.64908955 -41.97130269 48.29225963 C-41.96948985 44.4965253 -41.97212594 40.70092653 -41.98601723 36.90521431 C-41.99859268 33.33549137 -41.99665441 29.76606467 -41.98360634 26.19634628 C-41.98011318 24.2638395 -41.99142062 22.33132369 -42.00317383 20.39884949 C-41.99615952 19.2450177 -41.9891452 18.09118591 -41.98191833 16.90238953 C-41.98208608 15.90190866 -41.98225382 14.90142778 -41.98242664 13.87062931 C-41.37261865 9.40582382 -39.40459406 6.84419141 -36.10769653 3.87698364 C-27.24596936 -2.32622538 -10.34435628 -0.01749084 0 0 Z M258.39230347 155.12698364 C256.75436955 159.59694909 255.8408189 163.95420085 255.22238159 168.65530396 C255.07018473 169.7577092 255.07018473 169.7577092 254.91491318 170.88238525 C254.579223 173.32260755 254.25152582 175.76383813 253.92355347 178.20510864 C253.68504974 179.946139 253.44592001 181.68708369 253.20620728 183.427948 C252.69543883 187.14299789 252.18770498 190.85844355 251.6824646 194.57424927 C250.35560876 204.32822143 249.00888118 214.07944825 247.65792847 223.83010864 C247.52204063 224.8117952 247.3861528 225.79348175 247.24614716 226.80491638 C245.37329022 240.31589731 243.42873255 253.81391326 241.37667847 267.29885864 C241.25893066 268.07269142 241.14118286 268.8465242 241.01986694 269.64380646 C239.91161139 276.91514892 238.79056029 284.18446131 237.65714645 291.45192337 C237.34749486 293.44034627 237.03982547 295.42907752 236.73220825 297.41781616 C236.362435 299.80611358 235.98883513 302.19382328 235.61050415 304.58078003 C235.44858582 305.62727722 235.28666748 306.67377441 235.11984253 307.75198364 C234.97838806 308.65174927 234.83693359 309.55151489 234.69119263 310.47854614 C234.3636795 313.38061873 234.34249683 316.20891653 234.39230347 319.12698364 C235.00077936 319.12606185 235.60925526 319.12514006 236.23616982 319.12419033 C251.14841288 319.10195593 266.06065431 319.08548573 280.97290993 319.07517147 C288.18481675 319.07004903 295.39671241 319.06308514 302.60861206 319.05154419 C308.90585348 319.04147187 315.2030868 319.03510089 321.50033605 319.03289515 C324.82435238 319.03160898 328.14832746 319.02810691 331.47233963 319.02125359 C344.81720867 318.99486645 358.11921321 319.00929787 371.44037819 319.89707088 C378.78022526 320.33627867 384.67828472 319.2427463 391.39230347 316.12698364 C392.05568726 315.8193811 392.71907104 315.51177856 393.40255737 315.19485474 C403.04432415 310.6315924 411.5286745 305.40949537 419.39230347 298.12698364 C420.25339722 297.35741333 421.11449097 296.58784302 422.00167847 295.79495239 C436.63742083 282.06840009 444.75204183 263.16171249 445.67745972 243.21682739 C446.31686619 219.25050258 439.07333832 198.95861338 422.66012573 181.35427856 C401.25985928 159.27533358 373.65555089 155.62501324 344.39230347 155.12698364 C330.48664862 154.96370231 316.57828457 155.02627636 302.67202759 155.05831909 C297.66277499 155.06872605 292.65351699 155.07315312 287.64425659 155.07815552 C277.89359184 155.08873793 268.14295035 155.10570277 258.39230347 155.12698364 Z " fill="#02CCC4" transform="translate(339.6076965332031,183.87301635742188)"></path><path d="M0 0 C1.51372403 -0.0011555 3.02744778 -0.00274588 4.54117095 -0.00472724 C8.65775294 -0.00886351 12.77431144 -0.00685574 16.89089346 -0.00374103 C21.34976445 -0.00146294 25.80863162 -0.00497896 30.26750183 -0.00772095 C38.99621452 -0.01215613 47.72491858 -0.01121098 56.45363159 -0.00830831 C63.57429144 -0.00603992 70.69494888 -0.00574796 77.81560898 -0.00683212 C79.3424216 -0.00706197 79.3424216 -0.00706197 80.90007892 -0.00729647 C82.96907315 -0.00761625 85.03806738 -0.00794046 87.10706161 -0.00826906 C106.50063589 -0.01111869 125.89420545 -0.00784778 145.28777896 -0.00246869 C161.81025307 0.00197327 178.33272012 0.00124411 194.85519409 -0.00338745 C214.12558924 -0.00878694 233.3959802 -0.0108173 252.66637599 -0.00777519 C254.73891695 -0.00745673 256.81145791 -0.00714235 258.88399887 -0.00683212 C260.41269473 -0.00660071 260.41269473 -0.00660071 261.97227333 -0.00636462 C269.03785333 -0.0055135 276.10343058 -0.00695911 283.16901016 -0.00931168 C307.91034771 -0.01660259 332.65121874 0.00850521 357.39230347 0.12698364 C358.46790577 0.13184766 358.46790577 0.13184766 359.5652374 0.13680995 C367.83372785 0.17453041 376.10148889 0.23482971 384.36938071 0.3444674 C386.48865037 0.3707754 388.60800068 0.39147894 390.72738862 0.40529037 C410.61087773 0.5488139 430.60388909 2.90662854 449.76730347 8.37698364 C451.36324341 8.82086426 451.36324341 8.82086426 452.99142456 9.27371216 C468.86478669 13.82746761 483.86034544 20.32581718 498.39230347 28.12698364 C499.00831421 28.45698364 499.62432495 28.78698364 500.25900269 29.12698364 C508.41901011 33.54222676 516.04897981 38.45007231 523.39230347 44.12698364 C524.23406128 44.77538208 525.07581909 45.42378052 525.94308472 46.09182739 C569.54942502 80.3394197 600.55990873 128.75810228 608.39230347 184.12698364 C614.32343782 236.434694 604.37670015 289.18758472 574.39230347 333.12698364 C574.0305603 333.65856079 573.66881714 334.19013794 573.29611206 334.73782349 C564.78064538 347.17260193 555.12162891 358.51249403 544.83370972 369.50979614 C543.3811728 371.06691572 541.94479178 372.63977716 540.54464722 374.24417114 C539.01730347 375.93948364 539.01730347 375.93948364 536.39230347 378.12698364 C533.51730347 378.00198364 533.51730347 378.00198364 531.39230347 377.12698364 C531.39230347 376.46698364 531.39230347 375.80698364 531.39230347 375.12698364 C530.07230347 374.79698364 528.75230347 374.46698364 527.39230347 374.12698364 C527.39230347 373.46698364 527.39230347 372.80698364 527.39230347 372.12698364 C526.43324097 371.78667114 526.43324097 371.78667114 525.45480347 371.43948364 C521.25910086 369.64132538 517.35329791 367.38794343 513.39230347 365.12698364 C513.39230347 364.46698364 513.39230347 363.80698364 513.39230347 363.12698364 C510.42230347 362.46698364 507.45230347 361.80698364 504.39230347 361.12698364 C504.39230347 360.13698364 504.39230347 359.14698364 504.39230347 358.12698364 C503.59437378 357.89108521 502.79644409 357.65518677 501.97433472 357.41213989 C498.37467599 356.12065928 495.08261417 354.55472662 491.66622925 352.85134888 C482.63910848 348.35994303 473.50349212 344.48342771 464.01730347 341.06448364 C462.9663147 340.68284058 461.91532593 340.30119751 460.83248901 339.9079895 C455.66960407 338.08900454 450.85070614 336.62669656 445.39230347 336.12698364 C445.06230347 335.13698364 444.73230347 334.14698364 444.39230347 333.12698364 C443.4525769 333.01483521 442.51285034 332.90268677 441.54464722 332.78713989 C435.6716315 331.94982536 429.95433812 330.341665 424.21847534 328.85549927 C418.756085 327.4988013 414.01449121 326.9356688 408.39230347 327.12698364 C406.38509424 326.84023947 404.3805166 326.52462627 402.39230347 326.12698364 C402.39230347 325.79698364 402.39230347 325.46698364 402.39230347 325.12698364 C394.76513313 323.5085773 387.10501394 322.2633391 379.39230347 321.12698364 C380.97188564 317.96781931 383.69964509 317.75589197 386.95480347 316.56448364 C401.66072117 310.87999218 413.36991314 303.39846753 424.39230347 292.12698364 C425.07808472 291.46182739 425.76386597 290.79667114 426.47042847 290.11135864 C441.15240504 274.90030183 444.8639933 253.50745721 444.60714722 233.21292114 C443.93992731 210.89213582 433.07221508 192.32035357 417.39230347 177.12698364 C401.28264814 163.30729585 380.57336601 157.30585069 359.75338745 156.56716919 C358.567359 156.52485263 357.38133055 156.48253607 356.15936184 156.43893719 C342.04129364 155.98665448 327.9245066 156.02725991 313.80117607 156.0695858 C305.33832775 156.09466385 296.87544554 156.09967386 288.41256678 156.10706627 C286.29495688 156.10896789 284.17734714 156.11103987 282.05973756 156.1132735 C233.62031339 156.16408577 185.18062569 156.02332312 136.74141502 155.89127922 C133.43762601 155.88231761 130.13383687 155.87340389 126.83004761 155.86453247 C126.01034853 155.86232854 125.19064946 155.86012462 124.34611101 155.8578539 C110.84410329 155.82187199 97.34209611 155.79731152 83.84005725 155.77663662 C69.79570303 155.75490328 55.75140857 155.72195471 41.70710522 155.67828208 C33.12648344 155.65193469 24.54593537 155.63411592 15.96527518 155.6276376 C10.14355273 155.62239676 4.32192563 155.60622475 -1.49974567 155.58131798 C-4.84894781 155.56730631 -8.19783328 155.55975656 -11.54708672 155.56197548 C-15.17296535 155.56362043 -18.79831221 155.54699985 -22.42411804 155.52571106 C-23.47956253 155.53055864 -24.53500702 155.53540621 -25.62243468 155.54040068 C-30.97163074 155.48835656 -35.09067731 155.33890978 -39.60769653 152.12698364 C-41.88526531 149.05189724 -41.860688 146.23220475 -41.86839294 142.4785614 C-41.87547775 141.32754944 -41.88256256 140.17653748 -41.88986206 138.99064636 C-41.88738464 137.73183151 -41.88490723 136.47301666 -41.88235474 135.17605591 C-41.88670305 133.83383907 -41.8918866 132.49162473 -41.89784241 131.14941406 C-41.91123077 127.50684141 -41.91181128 123.86437252 -41.90927911 120.22178006 C-41.90820929 117.18000037 -41.91309302 114.13824167 -41.91788453 111.09646648 C-41.92897913 103.92001808 -41.92941738 96.74362202 -41.92337036 89.56716919 C-41.91732951 82.16558593 -41.92964442 74.76419271 -41.95094043 67.36264187 C-41.96855744 61.00583547 -41.97455764 54.64908955 -41.97130269 48.29225963 C-41.96948985 44.4965253 -41.97212594 40.70092653 -41.98601723 36.90521431 C-41.99859268 33.33549137 -41.99665441 29.76606467 -41.98360634 26.19634628 C-41.98011318 24.2638395 -41.99142062 22.33132369 -42.00317383 20.39884949 C-41.99615952 19.2450177 -41.9891452 18.09118591 -41.98191833 16.90238953 C-41.98208608 15.90190866 -41.98225382 14.90142778 -41.98242664 13.87062931 C-41.37261865 9.40582382 -39.40459406 6.84419141 -36.10769653 3.87698364 C-27.24596936 -2.32622538 -10.34435628 -0.01749084 0 0 Z " fill="#02D7B2" transform="translate(339.6076965332031,183.87301635742188)"></path><path d="M0 0 C1.14210151 0.00092179 2.28420301 0.00184359 3.46091366 0.00279331 C4.7664822 0.00141865 6.07205074 0.00004398 7.41718197 -0.00137234 C8.87755512 0.00216728 10.33792804 0.0058021 11.79830074 0.00952244 C13.3255224 0.0098043 14.8527442 0.0096466 16.37996578 0.00907993 C20.5388766 0.00879192 24.69775884 0.01468928 28.85666299 0.02165389 C33.19820497 0.02788677 37.53974753 0.02849118 41.8812933 0.0296793 C50.10839555 0.03279281 58.33548458 0.04100646 66.562581 0.05102879 C75.92639037 0.06218932 85.29020035 0.06770022 94.65401471 0.07272422 C113.92143722 0.08318906 133.18884741 0.10078888 152.45625973 0.12304783 C151.96079204 7.01025058 151.45332936 13.86725914 150.50752926 20.70825291 C150.41753658 21.36648894 150.32754391 22.02472498 150.23482418 22.70290756 C149.94014455 24.85002458 149.63979243 26.99630044 149.33907223 29.14257908 C149.1236648 30.69910679 148.90849199 32.25566699 148.6935339 33.81225681 C148.11547213 37.98753953 147.53154486 42.16198069 146.94576168 46.33618641 C146.57953007 48.94788246 146.21475258 51.55977814 145.8503027 54.17172337 C142.22670069 80.11971299 138.42708039 106.03847041 134.45625973 131.93554783 C134.34017612 132.69313515 134.22409252 133.45072247 134.10449123 134.23126698 C131.83257421 149.05049685 129.54600678 163.86652351 127.04219723 178.64868259 C126.31023975 182.98888546 125.62663184 187.33549861 124.95625973 191.68554783 C124.13182474 196.99912184 123.25600174 202.29628368 122.28047848 207.58422947 C120.83151283 215.4574917 119.8188986 223.30831832 118.97969723 231.26757908 C117.10169592 248.96975098 114.44632967 266.46028806 110.63985348 283.85351658 C108.97348894 291.57462975 107.94405426 299.2273166 107.0924902 307.07592869 C105.64319626 319.99815859 103.80862332 332.83776843 101.83907223 345.68945408 C101.4962125 347.94972339 101.15376461 350.21005521 100.81169796 352.47044468 C99.92008214 358.35504238 99.0230435 364.23879999 98.12471676 370.12237644 C97.04792087 377.1823795 95.97806443 384.24343729 94.90710735 391.30432796 C94.04417313 396.99119516 93.17903588 402.67770819 92.30861568 408.36343479 C90.81644513 418.11681172 89.3373726 427.87078013 87.93965816 437.63818455 C87.60707644 439.9350642 87.2737712 442.23183765 86.94023418 444.52857876 C86.64673217 446.57518746 86.36506448 448.62318136 86.08397579 450.671525 C85.91018398 451.86716572 85.73639217 453.06280643 85.55733395 454.29467869 C85.4152853 455.31089802 85.27323666 456.32711735 85.12688351 457.3741312 C84.03264863 461.8594485 81.85645523 465.09919974 78.33907223 468.03320408 C77.43850094 468.79649021 77.43850094 468.79649021 76.51973629 469.57519627 C75.88003902 470.10661228 75.24034176 470.6380283 74.58125973 471.18554783 C73.22291191 472.33603225 71.86617066 473.4884159 70.51094723 474.64257908 C69.82999996 475.22217381 69.1490527 475.80176853 68.44747066 476.39892673 C65.46346437 478.9826752 62.58373802 481.67191984 59.70625973 484.37304783 C54.93178469 488.84184001 49.98262981 493.0068063 44.88204098 497.10351658 C42.1175337 499.40504679 39.61943898 501.86914699 37.12032223 504.45117283 C34.73089452 506.85181851 32.17510018 509.03925578 29.61250973 511.25195408 C23.59132186 516.47686167 17.72276676 521.87805732 11.83125973 527.24804783 C8.10829905 530.63729775 4.35031257 533.97739536 0.55000973 537.27929783 C-2.00793054 539.5318124 -4.52553007 541.82621875 -7.04374027 544.12304783 C-10.80724548 547.55569544 -14.60503378 550.93859792 -18.44999027 554.27929783 C-21.97186497 557.38065017 -25.42451049 560.55818115 -28.89139652 563.72070408 C-31.06835023 565.69246627 -33.26212702 567.6367012 -35.48124027 569.56054783 C-39.43041394 572.99073358 -43.27396332 576.53308301 -47.12162113 580.07592869 C-50.50836646 583.18904081 -53.94280276 586.23556865 -57.41874027 589.24804783 C-60.69882608 592.14224119 -63.90642084 595.11523675 -67.12406254 598.07837009 C-70.47757575 601.1611914 -73.87921151 604.1757433 -77.32499027 607.15429783 C-81.02614116 610.43841763 -84.63363694 613.82574392 -88.24076176 617.21264744 C-92.4354189 621.12304783 -92.4354189 621.12304783 -93.54374027 621.12304783 C-92.91046615 611.95036727 -91.74833481 602.89722782 -90.41874027 593.80273533 C-90.19796005 592.27476212 -89.97744374 590.74675076 -89.75716496 589.21870518 C-89.15227665 585.03077527 -88.54238694 580.84358757 -87.93134022 576.65655231 C-87.53923166 573.96712374 -87.14852538 571.27749495 -86.75824833 568.58780003 C-81.47141478 532.15878286 -76.03705782 495.75171374 -70.59139252 459.34615993 C-66.90502366 434.70153818 -63.22784466 410.05577539 -59.61405277 385.40039158 C-59.45694199 384.32862486 -59.2998312 383.25685814 -59.13795948 382.15261364 C-57.88726991 373.61940685 -56.63767224 365.08604014 -55.38845921 356.55261707 C-52.05284328 333.76986177 -48.70107155 310.99041992 -45.19999027 288.23242283 C-45.0628801 287.34082651 -44.92576992 286.44923019 -44.78450489 285.53061581 C-44.22820007 281.91364593 -43.67162946 278.29671699 -43.1149435 274.67980576 C-36.65865837 232.72799528 -30.55061749 190.7300817 -24.55581331 148.71029091 C-24.23576528 146.46726097 -23.91555292 144.22425455 -23.59528828 141.98125553 C-19.6858859 114.59934188 -15.79210381 87.21534522 -12.00711918 59.81591892 C-11.90345637 59.06574399 -11.79979357 58.31556906 -11.69298947 57.54266155 C-10.69344144 50.30800766 -9.69557887 43.07312901 -8.70411253 35.83736277 C-8.43115659 33.84670903 -8.1573614 31.85617043 -7.8835516 29.86563396 C-7.55268732 27.46032133 -7.22313108 25.05482818 -6.89524364 22.64910793 C-3.80029142 0.18383072 -3.80029142 0.18383072 0 0 Z " fill="#006ED7" transform="translate(444.543740272522,338.8769521713257)"></path><path d="M0 0 C0 3.77910478 -0.99703962 4.46106101 -3.5 7.1875 C-4.1496875 7.90292969 -4.799375 8.61835937 -5.46875 9.35546875 C-5.9740625 9.89816406 -6.479375 10.44085937 -7 11 C-6.30748083 10.99924056 -5.61496167 10.99848112 -4.90145707 10.99769866 C36.11619752 10.95297094 77.13384928 10.91864127 118.15152334 10.89786934 C123.07334633 10.89536784 127.99516927 10.8927792 132.91699219 10.89013672 C133.89686459 10.8896121 134.87673699 10.88908748 135.8863025 10.88854696 C151.76539688 10.8798374 167.64447683 10.8640644 183.52356264 10.84569441 C199.80931977 10.82701067 216.09506932 10.81588651 232.38083673 10.81182301 C242.43512185 10.80907478 252.48936617 10.80038559 262.54363874 10.78416707 C269.43232572 10.77361902 276.32099153 10.77039442 283.20968601 10.77299725 C287.18783302 10.77428194 291.16590857 10.77227219 295.14404297 10.76158905 C298.78345544 10.7518866 302.42274812 10.75134542 306.06216601 10.75820221 C308.00774895 10.75945298 309.95333041 10.75080023 311.89889312 10.74183738 C313.04941106 10.74581948 314.199929 10.74980158 315.38531113 10.75390434 C316.38017839 10.7531449 317.37504566 10.75238546 318.40006042 10.75160301 C321 11 321 11 325 13 C213.46 13 101.92 13 -13 13 C-6.25 5.125 -6.25 5.125 -3.125 2.5625 C-2.52945312 2.06878906 -1.93390625 1.57507813 -1.3203125 1.06640625 C-0.88460938 0.71449219 -0.44890625 0.36257813 0 0 Z " fill="#0DBECF" transform="translate(418,969)"></path><path d="M0 0 C1.71315226 0.00138269 1.71315226 0.00138269 3.46091366 0.00279331 C4.7664822 0.00141865 6.07205074 0.00004398 7.41718197 -0.00137234 C8.87755512 0.00216728 10.33792804 0.0058021 11.79830074 0.00952244 C13.3255224 0.0098043 14.8527442 0.0096466 16.37996578 0.00907993 C20.5388766 0.00879192 24.69775884 0.01468928 28.85666299 0.02165389 C33.19820497 0.02788677 37.53974753 0.02849118 41.8812933 0.0296793 C50.10839555 0.03279281 58.33548458 0.04100646 66.562581 0.05102879 C75.92639037 0.06218932 85.29020035 0.06770022 94.65401471 0.07272422 C113.92143722 0.08318906 133.18884741 0.10078888 152.45625973 0.12304783 C152.34269683 1.76970986 152.21508592 3.41540865 152.08125973 5.06054783 C152.01165035 5.97707127 151.94204098 6.8935947 151.87032223 7.83789158 C151.7336816 8.59199314 151.59704098 9.3460947 151.45625973 10.12304783 C150.79625973 10.45304783 150.13625973 10.78304783 149.45625973 11.12304783 C149.45625973 8.48304783 149.45625973 5.84304783 149.45625973 3.12304783 C130.50658849 3.07633257 111.55692894 3.04106131 92.60721207 3.01942348 C83.80858403 3.00910975 75.00999176 2.99504755 66.21138668 2.97216892 C58.5427621 2.95223803 50.87416342 2.9393321 43.20551366 2.93487084 C39.14481473 2.93226295 35.08418992 2.92613124 31.02351475 2.91158772 C27.20111853 2.89800857 23.37882693 2.89382586 19.55640888 2.89683247 C18.15396589 2.89628245 16.75151938 2.89230695 15.34909725 2.88463688 C13.43284293 2.87467104 11.51653241 2.878274 9.60025692 2.8825388 C8.52821168 2.88069521 7.45616644 2.87885162 6.35163498 2.87695217 C3.35660949 3.13151771 1.16829078 3.86063569 -1.54374027 5.12304783 C-1.50249027 6.19554783 -1.46124027 7.26804783 -1.41874027 8.37304783 C-1.53232277 11.78052268 -1.75647391 13.33044413 -3.54374027 16.12304783 C-3.87374027 16.12304783 -4.20374027 16.12304783 -4.54374027 16.12304783 C-4.63371952 10.99423086 -4.47493817 6.19290303 -3.54374027 1.12304783 C-2.54374027 0.12304783 -2.54374027 0.12304783 0 0 Z " fill="#014982" transform="translate(444.543740272522,338.8769521713257)"></path><path d="M0 0 C1.03355118 0.02009125 2.06710236 0.0401825 3.13197327 0.06088257 C4.22505295 0.08792267 5.31813263 0.11496277 6.44433594 0.14282227 C7.61665268 0.16647858 8.78896942 0.19013489 9.99681091 0.21450806 C12.50755576 0.26526687 15.01825289 0.31843394 17.52890015 0.37380981 C24.13194412 0.51843823 30.73534788 0.64321458 37.33886719 0.76391602 C38.33617576 0.7823352 38.33617576 0.7823352 39.35363197 0.80112648 C52.85804986 1.04737815 66.35976956 1.11054968 79.86621094 1.08422852 C81.36106018 1.08143387 81.36106018 1.08143387 82.8861084 1.07858276 C88.31701823 1.06686699 93.74785248 1.04795285 99.17871094 1.02172852 C98.84871094 1.68172852 98.51871094 2.34172852 98.17871094 3.02172852 C15.67871094 3.02172852 -66.82128906 3.02172852 -151.82128906 3.02172852 C-151.82128906 2.69172852 -151.82128906 2.36172852 -151.82128906 2.02172852 C-150.78375457 2.01538061 -150.78375457 2.01538061 -149.72525978 2.00890446 C-132.86440785 1.9054231 -116.00359798 1.79675991 -99.14281654 1.68238926 C-90.9889425 1.62720347 -82.83506408 1.57374627 -74.68115234 1.52441406 C-67.57096108 1.48139205 -60.46080011 1.43507001 -53.35065591 1.38484997 C-49.58885896 1.35839334 -45.82706746 1.33354532 -42.06523514 1.3126545 C-38.51777465 1.29290188 -34.97037106 1.26870601 -31.42296219 1.24123764 C-29.51407059 1.22757439 -27.60514782 1.21850073 -25.69622803 1.20960999 C-19.72094958 1.15910282 -13.86829219 0.90889953 -7.93043327 0.23916721 C-5.27447471 -0.0346444 -2.66816037 -0.06010584 0 0 Z " fill="#25EBB7" transform="translate(457.8212890625,335.978271484375)"></path><path d="M0 0 C2.17189888 1.72265863 2.93748242 2.59950989 3.3719368 5.38264179 C3.37047024 6.33074821 3.36900368 7.27885462 3.36749268 8.25569153 C3.37306183 9.34498459 3.37863098 10.43427765 3.3843689 11.55657959 C3.37515411 12.7519635 3.36593933 13.94734741 3.35644531 15.17895508 C3.35848969 16.43771957 3.36053406 17.69648407 3.36264038 18.99339294 C3.36777866 22.44816852 3.35422864 25.90264668 3.33711338 29.35737443 C3.32207834 32.97405665 3.32325134 36.59073499 3.32244873 40.20744324 C3.31875455 46.28458734 3.30378345 52.36161861 3.28125 58.4387207 C3.25241813 66.23014915 3.24203016 74.02148653 3.2375679 81.81296253 C3.23358034 88.51794535 3.22107654 95.22290852 3.20722103 101.92787719 C3.20313038 104.07919949 3.20020041 106.23052111 3.19742584 108.38184547 C3.19160017 112.39888617 3.1769111 116.41584741 3.16113281 120.43286133 C3.16001495 121.62217255 3.15889709 122.81148376 3.15774536 124.03683472 C3.15203522 125.13458725 3.14632507 126.23233978 3.14044189 127.36335754 C3.13746723 128.31259503 3.13449257 129.26183252 3.13142776 130.23983479 C2.98942336 133.22212409 2.54422288 136.06661519 2 139 C3.65 139.66 5.3 140.32 7 141 C7 141.66 7 142.32 7 143 C2.3556994 141.53337876 2.3556994 141.53337876 0.85096931 139.27700424 C-0.18898831 136.4943094 -0.24595191 134.28974099 -0.24050903 131.31793213 C-0.24325836 130.15969437 -0.24600769 129.0014566 -0.24884033 127.80812073 C-0.24164978 126.54145065 -0.23445923 125.27478058 -0.22705078 123.96972656 C-0.2264865 122.61940011 -0.22680356 121.26907304 -0.22793579 119.91874695 C-0.22850964 116.25582369 -0.21675011 112.59303141 -0.20278788 108.93013859 C-0.19028593 105.10111721 -0.18911044 101.27209284 -0.18673706 97.4430542 C-0.18052072 90.19350995 -0.16410781 82.94402601 -0.14403808 75.69450831 C-0.12168389 67.44065121 -0.11068686 59.18679123 -0.10064721 50.9329114 C-0.07974172 33.95523938 -0.04456273 16.97762607 0 0 Z " fill="#15F399" transform="translate(298,195)"></path><path d="M0 0 C0.33 0 0.66 0 1 0 C1.02696365 1.79158489 1.04637917 3.58328473 1.0625 5.375 C1.07410156 6.37273438 1.08570313 7.37046875 1.09765625 8.3984375 C1 11 1 11 0 13 C-0.18148136 15.05966942 -0.32109708 17.12312988 -0.4375 19.1875 C-0.92967024 26.39541259 -0.92967024 26.39541259 -2.0625 29.9375 C-3.03904692 33.12755327 -3.0770104 35.68855289 -3 39 C-3.33 39.66 -3.66 40.32 -4 41 C-4 41.763125 -4 42.52625 -4 43.3125 C-4 46.73674959 -4.70520767 49.78707585 -5.51171875 53.10546875 C-6.32157478 56.53443366 -7 59.58651591 -7 63.125 C-7 66.69193601 -7.98283 69.58948882 -9 73 C-9.84722932 78.31324433 -10.42571884 83.6520067 -11 89 C-11.24548671 91.28609498 -11.49380839 93.57143318 -11.7578125 95.85546875 C-11.98648791 97.88035263 -12.18180226 99.9089237 -12.375 101.9375 C-13 105 -13 105 -16 107 C-14.67163264 94.12019262 -12.94641423 81.33443491 -10.99609375 68.53515625 C-10.70965388 66.63996304 -10.42344943 64.74473425 -10.13746643 62.84947205 C-9.54383185 58.92054555 -8.94778268 54.99199585 -8.34985352 51.0637207 C-7.58341331 46.02739261 -6.82260534 40.99023247 -6.06347561 35.95279789 C-5.47612527 32.05868862 -4.88616379 28.16497856 -4.29536629 24.27139091 C-4.01354291 22.41232911 -3.73246413 20.55315427 -3.45214653 18.69386482 C-3.06242839 16.11199193 -2.66927133 13.53066625 -2.27514648 10.94946289 C-2.16032425 10.18436401 -2.04550201 9.41926514 -1.92720032 8.63098145 C-1.46784624 5.64269255 -0.95831192 2.87493576 0 0 Z " fill="#158DF9" transform="translate(380,762)"></path><path d="M0 0 C0.33 0 0.66 0 1 0 C1.19791131 6.49808786 1.13938575 12.46154734 -0.4921875 18.76953125 C-1.24240523 22.06471834 -1.48846526 25.37422299 -1.75390625 28.73828125 C-1.99031627 30.91100192 -2.44132005 32.89087492 -3 35 C-3.79564627 39.97278917 -4.29450022 44.94569905 -4.71875 49.9609375 C-5 52 -5 52 -6 53 C-6.23421634 54.45156297 -6.41338404 55.91224343 -6.5625 57.375 C-6.64628906 58.16648437 -6.73007812 58.95796875 -6.81640625 59.7734375 C-7.04108863 62.12595572 -7.04108863 62.12595572 -7 65 C-7.2165625 66.2684375 -7.2165625 66.2684375 -7.4375 67.5625 C-8.04088136 71.24983052 -8.34843659 74.90843178 -8.62109375 78.6328125 C-9.01623289 81.10141371 -9.76987976 82.83857415 -11 85 C-10.34 85 -9.68 85 -9 85 C-8.67 84.01 -8.34 83.02 -8 82 C-7.01 82.33 -6.02 82.66 -5 83 C-6.1427919 84.16964602 -7.28931715 85.33564556 -8.4375 86.5 C-9.39462891 87.47453125 -9.39462891 87.47453125 -10.37109375 88.46875 C-12 90 -12 90 -13 90 C-12.34158023 80.0117842 -10.97457644 70.17033229 -9.53125 60.2734375 C-9.288238 58.59147176 -9.04544401 56.90947451 -8.80285645 55.22744751 C-8.29749919 51.72925106 -7.7895834 48.23143865 -7.27978516 44.73388672 C-6.62593654 40.24663404 -5.97853467 35.75847842 -5.33298492 31.27002525 C-4.83451887 27.80908715 -4.33274245 24.34863538 -3.8299408 20.88832474 C-3.58970132 19.23222165 -3.35048951 17.57596915 -3.11231995 15.91956711 C-2.78071811 13.61693471 -2.44468106 11.3149932 -2.10742188 9.01318359 C-2.00973007 8.32857056 -1.91203827 7.64395752 -1.81138611 6.93859863 C-1.11428222 2.22856445 -1.11428222 2.22856445 0 0 Z " fill="#148EF8" transform="translate(364,870)"></path><path d="M0 0 C0.33 0 0.66 0 1 0 C2.12742865 5.04167035 1.83113294 9.27327856 1.125 14.3125 C1.03347656 15.04017578 0.94195312 15.76785156 0.84765625 16.51757812 C0.14074248 21.85925752 0.14074248 21.85925752 -1 23 C-1.20931897 25.16296273 -1.36797069 27.3309471 -1.5 29.5 C-1.88888889 35.88888889 -1.88888889 35.88888889 -3 37 C-3.27352849 38.51197872 -3.49104443 40.03418493 -3.68359375 41.55859375 C-3.80669922 42.50283203 -3.92980469 43.44707031 -4.05664062 44.41992188 C-4.24516602 45.91362305 -4.24516602 45.91362305 -4.4375 47.4375 C-5.26521837 53.96727828 -6.20149002 60.41668421 -7.5625 66.85888672 C-8.44187633 71.16253093 -8.94502644 75.51309129 -9.4375 79.875 C-9.623125 80.90625 -9.80875 81.9375 -10 83 C-10.99 83.495 -10.99 83.495 -12 84 C-10.7469624 72.85881905 -9.29442085 61.76842412 -7.6171875 50.68359375 C-7.39561029 49.2057692 -7.1742713 47.72790892 -6.95315552 46.25001526 C-6.38014048 42.42433634 -5.80396712 38.59914012 -5.22705078 34.77404785 C-4.63507156 30.84510393 -4.04619629 26.91569485 -3.45703125 22.98632812 C-2.30766231 15.32376968 -1.15494422 7.66172032 0 0 Z " fill="#1283F0" transform="translate(402,609)"></path><path d="M0 0 C8.01469833 -0.04635629 16.02934057 -0.08188589 24.04413986 -0.10362434 C27.7658029 -0.11405811 31.48737416 -0.12820982 35.20898438 -0.15087891 C38.80106762 -0.1726219 42.39306263 -0.18457169 45.9852066 -0.18975449 C47.35512938 -0.19344764 48.72504738 -0.20065945 50.09493256 -0.21146011 C52.01473779 -0.22599349 53.93463196 -0.22681708 55.85449219 -0.22705078 C56.94703308 -0.231492 58.03957397 -0.23593323 59.16522217 -0.24050903 C61.97382991 -0.00222033 63.61641545 0.54585587 66 2 C64.90791985 1.99333817 64.90791985 1.99333817 63.79377747 1.98654175 C56.92291702 1.94641984 50.05207416 1.91599261 43.18112659 1.89637566 C39.64893904 1.88595124 36.11684852 1.8718167 32.5847168 1.84912109 C28.52131229 1.82317606 24.45800926 1.81351613 20.39453125 1.8046875 C19.1297847 1.79436493 17.86503815 1.78404236 16.56196594 1.77340698 C14.79069588 1.77318039 14.79069588 1.77318039 12.98364258 1.77294922 C11.94661697 1.768508 10.90959137 1.76406677 9.84114075 1.75949097 C6.87068616 2.01094671 4.69174685 2.75187146 2 4 C2.04125 5.0725 2.0825 6.145 2.125 7.25 C2.0114175 10.65747485 1.78726636 12.20739631 0 15 C-0.33 15 -0.66 15 -1 15 C-1.09043958 9.84494407 -0.75466911 5.11555983 0 0 Z " fill="#002F87" transform="translate(441,340)"></path><path d="M0 0 C-1.32 1.65 -2.64 3.3 -4 5 C-3.01 4.67 -2.02 4.34 -1 4 C1.33817209 4.64949225 3.67126625 5.31744011 6 6 C8.79244045 6.16928543 8.79244045 6.16928543 11 6 C11.33 6.66 11.66 7.32 12 8 C3.10708083 8.48506832 -5.30940593 6.67625695 -14 5 C-12.49587218 1.99174436 -10.13951699 1.69337029 -7.078125 0.59765625 C-4.64864679 -0.10104707 -2.51431136 -0.23571669 0 0 Z " fill="#06B4AF" transform="translate(733,500)"></path><path d="M0 0 C8.91 0 17.82 0 27 0 C27 0.66 27 1.32 27 2 C26.42032471 1.98952637 25.84064941 1.97905273 25.2434082 1.96826172 C22.59981679 1.92651385 19.95629495 1.90061462 17.3125 1.875 C16.40048828 1.85824219 15.48847656 1.84148437 14.54882812 1.82421875 C9.93151773 1.79063831 6.18067669 1.76443815 2 4 C2.04125 5.0725 2.0825 6.145 2.125 7.25 C2.0114175 10.65747485 1.78726636 12.20739631 0 15 C-0.33 15 -0.66 15 -1 15 C-1.09289153 9.70518291 -0.76541303 5.35789122 0 0 Z " fill="#002D87" transform="translate(441,340)"></path><path d="M0 0 C0.99 0.33 1.98 0.66 3 1 C2.79503906 2.03898438 2.59007812 3.07796875 2.37890625 4.1484375 C1.03262317 11.08550033 -0.28351133 17.91419633 -0.69140625 24.984375 C-1.04507582 27.29441927 -1.86261508 28.97189194 -3 31 C-4.20029908 27.39910275 -3.7817151 25.32603142 -3.22265625 21.58203125 C-3.03896484 20.32841797 -2.85527344 19.07480469 -2.66601562 17.78320312 C-2.46499498 16.45961244 -2.26382114 15.13604501 -2.0625 13.8125 C-1.86459198 12.4773086 -1.66731881 11.14202294 -1.47070312 9.80664062 C-0.98671622 6.53677787 -0.4962285 3.26802362 0 0 Z " fill="#1589F7" transform="translate(384,730)"></path><path d="M0 0 C0.33 0 0.66 0 1 0 C0.39507314 10.45063307 -1.28484583 20.68750074 -3 31 C-3.33 31 -3.66 31 -4 31 C-4.88242604 24.40565402 -5.17237813 19.39644671 -3 13 C-2.80449223 11.62880363 -2.63858129 10.25311393 -2.5 8.875 C-2.06583771 5.51024228 -1.42665936 3.04353996 0 0 Z " fill="#2197FB" transform="translate(535,748)"></path><path d="M0 0 C0.66 0.99 1.32 1.98 2 3 C-1 8 -1 8 -4 13 C-4.75796875 14.3303125 -4.75796875 14.3303125 -5.53125 15.6875 C-7.2900825 18.45672564 -9.36604771 20.07792671 -12 22 C-12.66 21.67 -13.32 21.34 -14 21 C-13.57589844 20.57332031 -13.15179687 20.14664062 -12.71484375 19.70703125 C-7.15982706 13.78574973 -3.61332111 7.20467675 0 0 Z " fill="#15B4BB" transform="translate(778,455)"></path><path d="M0 0 C0.66 0.33 1.32 0.66 2 1 C0.73167312 3.56376764 -0.53956365 6.12602212 -1.8125 8.6875 C-2.16892578 9.40873047 -2.52535156 10.12996094 -2.89257812 10.87304688 C-4.78806219 14.68140477 -6.74207126 18.38873857 -9 22 C-9.66 21.34 -10.32 20.68 -11 20 C-10.34 20 -9.68 20 -9 20 C-8.01 17.03 -7.02 14.06 -6 11 C-5.34 11 -4.68 11 -4 11 C-4.0825 10.29875 -4.165 9.5975 -4.25 8.875 C-3.9191745 5.07050673 -2.24686686 3.01922734 0 0 Z " fill="#1BB0C4" transform="translate(929,485)"></path><path d="M0 0 C0.99626083 3.17021017 0.96516845 5.4973489 0.44140625 8.765625 C0.30283203 9.65507813 0.16425781 10.54453125 0.02148438 11.4609375 C-0.12998047 12.38132812 -0.28144531 13.30171875 -0.4375 14.25 C-0.58509766 15.18585937 -0.73269531 16.12171875 -0.88476562 17.0859375 C-1.24947522 19.39184331 -1.62144974 21.69633288 -2 24 C-2.66 23.34 -3.32 22.68 -4 22 C-3.87015298 18.9840078 -3.62387303 16.11131081 -3.25 13.125 C-3.11851562 11.90103516 -3.11851562 11.90103516 -2.984375 10.65234375 C-2.51312291 6.64015581 -1.97186714 3.57614925 0 0 Z " fill="#1F90F2" transform="translate(547,669)"></path><path d="M0 0 C0.33 0 0.66 0 1 0 C2.09906922 4.99291446 1.89138004 9.24723571 1.25 14.25 C1.17523438 14.96929688 1.10046875 15.68859375 1.0234375 16.4296875 C0.765625 18.515625 0.765625 18.515625 0 22 C-0.99 22.66 -1.98 23.32 -3 24 C-2.68860949 21.31236733 -2.37591843 18.62489631 -2.0625 15.9375 C-1.97548828 15.18533203 -1.88847656 14.43316406 -1.79882812 13.65820312 C-1.26536361 9.09411781 -0.67013702 4.54606466 0 0 Z " fill="#1A84EC" transform="translate(402,609)"></path><path d="M0 0 C1.14176746 3.42530237 0.83108216 4.31673674 -0.21484375 7.66796875 C-0.48876953 8.56064453 -0.76269531 9.45332031 -1.04492188 10.37304688 C-1.33947266 11.30181641 -1.63402344 12.23058594 -1.9375 13.1875 C-2.22818359 14.12787109 -2.51886719 15.06824219 -2.81835938 16.03710938 C-3.53781887 18.36060971 -4.26529186 20.68128518 -5 23 C-5.66 22.34 -6.32 21.68 -7 21 C-6.79503906 20.43152344 -6.59007812 19.86304688 -6.37890625 19.27734375 C-4.70907331 14.4915546 -3.53623064 10.04056799 -3 5 C-2.34 5 -1.68 5 -1 5 C-0.67 3.35 -0.34 1.7 0 0 Z " fill="#14B6C8" transform="translate(943,446)"></path><path d="M0 0 C-0.33 0.66 -0.66 1.32 -1 2 C-11.23 1.67 -21.46 1.34 -32 1 C-32 0.67 -32 0.34 -32 0 C-27.97962032 -0.19820989 -23.95869488 -0.3816467 -19.9375 -0.5625 C-18.80376953 -0.61857422 -17.67003906 -0.67464844 -16.50195312 -0.73242188 C-10.84433079 -0.97983976 -5.56706777 -1.09078977 0 0 Z " fill="#41E4C6" transform="translate(716,339)"></path><path d="M0 0 C0.66 0 1.32 0 2 0 C1.85761163 2.04190981 1.71092972 4.08352045 1.5625 6.125 C1.48128906 7.26195312 1.40007813 8.39890625 1.31640625 9.5703125 C1.02269035 12.7540478 0.56875687 15.85510907 0 19 C-2 17 -2 17 -2.01171875 14.609375 C-1.90472656 13.66578125 -1.79773438 12.7221875 -1.6875 11.75 C-1.57921875 10.76902344 -1.4709375 9.78804687 -1.359375 8.77734375 C-0.97881489 5.83627594 -0.55134225 2.91423762 0 0 Z " fill="#1B8EF8" transform="translate(542,694)"></path><path d="M0 0 C1.64518886 2.5161712 2.02003059 3.77465584 1.75 6.8125 C0.94087129 10.25129702 0.01505162 13.6164946 -1 17 C-1.33 17 -1.66 17 -2 17 C-2.11116338 11.55299453 -2.00581962 6.36437132 -1 1 C-0.67 0.67 -0.34 0.34 0 0 Z " fill="#1160C1" transform="translate(424,466)"></path><path d="M0 0 C0.33 0 0.66 0 1 0 C1.0544452 2.20805524 1.09299283 4.41650554 1.125 6.625 C1.14820313 7.85476563 1.17140625 9.08453125 1.1953125 10.3515625 C1.0030428 13.94316041 0.30258556 16.66661175 -1 20 C-1.99 20 -2.98 20 -4 20 C-3.79503906 19.14277344 -3.59007812 18.28554688 -3.37890625 17.40234375 C-2.01548745 11.61596829 -0.68696882 5.90793184 0 0 Z " fill="#0D408B" transform="translate(590,374)"></path><path d="M0 0 C-0.11344376 2.1464753 -0.24106345 4.29220592 -0.375 6.4375 C-0.47941406 8.22994141 -0.47941406 8.22994141 -0.5859375 10.05859375 C-0.72257813 11.02925781 -0.85921875 11.99992188 -1 13 C-1.99 13.495 -1.99 13.495 -3 14 C-2.979375 12.9275 -2.95875 11.855 -2.9375 10.75 C-2.8238724 7.20574198 -2.8238724 7.20574198 -3.6875 4.75 C-3.790625 4.1725 -3.89375 3.595 -4 3 C-1.64285714 0 -1.64285714 0 0 0 Z " fill="#1790F7" transform="translate(531,779)"></path><path d="M0 0 C1.32 0.33 2.64 0.66 4 1 C0.7 3.97 -2.6 6.94 -6 10 C-6.33 8.68 -6.66 7.36 -7 6 C-2.25 2 -2.25 2 0 2 C0 1.34 0 0.68 0 0 Z " fill="#0E8EF5" transform="translate(370,939)"></path><path d="M0 0 C-1.5625 2.5625 -1.5625 2.5625 -4 5 C-7.75 4.8125 -7.75 4.8125 -11 4 C-10 2 -10 2 -7.75 0.875 C-4.98386705 -0.00513321 -2.87951649 -0.1645438 0 0 Z " fill="#109BA8" transform="translate(733,500)"></path><path d="M0 0 C1.08501999 3.55256544 1.19984741 6.92206719 1.25 10.625 C1.27578125 11.77226563 1.3015625 12.91953125 1.328125 14.1015625 C1.21984375 15.05804687 1.1115625 16.01453125 1 17 C0.01 17.66 -0.98 18.32 -2 19 C-1.85913398 16.39547729 -1.71251536 13.79149803 -1.5625 11.1875 C-1.50352539 10.08051758 -1.50352539 10.08051758 -1.44335938 8.95117188 C-1.25618965 5.76928658 -1.01279207 3.03837622 0 0 Z " fill="#07B5D4" transform="translate(553,631)"></path><path d="M0 0 C0 3.77910478 -0.99703962 4.46106101 -3.5 7.1875 C-4.1496875 7.90292969 -4.799375 8.61835937 -5.46875 9.35546875 C-5.9740625 9.89816406 -6.479375 10.44085937 -7 11 C-8.32 10.67 -9.64 10.34 -11 10 C-5.555 5.05 -5.555 5.05 0 0 Z " fill="#1ABED4" transform="translate(418,969)"></path><path d="M0 0 C2.49552403 2.27597646 4.06622986 4.60721178 5.6875 7.5625 C6.12449219 8.34753906 6.56148437 9.13257813 7.01171875 9.94140625 C8 12 8 12 8 14 C5 13 5 13 3.83203125 11.00390625 C3.49558594 10.19824219 3.15914062 9.39257812 2.8125 8.5625 C2.46832031 7.75941406 2.12414062 6.95632813 1.76953125 6.12890625 C1 4 1 4 1 2 C0.34 1.67 -0.32 1.34 -1 1 C-0.67 0.67 -0.34 0.34 0 0 Z " fill="#15DBBD" transform="translate(923,617)"></path><path d="M0 0 C2.78637633 4.1795645 1.79562512 6.14668677 1 11 C3.475 11.99 3.475 11.99 6 13 C6 13.66 6 14.32 6 15 C1.125 13.125 1.125 13.125 0 12 C-0.07244053 9.98035801 -0.08377188 7.95832876 -0.0625 5.9375 C-0.05347656 4.83277344 -0.04445313 3.72804688 -0.03515625 2.58984375 C-0.02355469 1.73519531 -0.01195312 0.88054687 0 0 Z " fill="#11F199" transform="translate(299,323)"></path><path d="M0 0 C0.99 0.66 1.98 1.32 3 2 C1.02 3.98 -0.96 5.96 -3 8 C-3.99 7.67 -4.98 7.34 -6 7 C-4.02 4.69 -2.04 2.38 0 0 Z " fill="#1494F7" transform="translate(435,880)"></path><path d="M0 0 C1.23593891 3.70781672 0.5678132 4.67510253 -0.9375 8.1875 C-1.31777344 9.08855469 -1.69804688 9.98960937 -2.08984375 10.91796875 C-2.54037109 11.94857422 -2.54037109 11.94857422 -3 13 C-3.33 13 -3.66 13 -4 13 C-4 10.69 -4 8.38 -4 6 C-3.01 5.67 -2.02 5.34 -1 5 C-1.33 4.01 -1.66 3.02 -2 2 C-1.34 1.34 -0.68 0.68 0 0 Z " fill="#18B0C2" transform="translate(936,469)"></path><path d="M0 0 C0.33 0 0.66 0 1 0 C1.37952295 6.19887485 0.8352113 10.4477112 -2 16 C-2.66 15.34 -3.32 14.68 -4 14 C-2.68 9.38 -1.36 4.76 0 0 Z " fill="#1ABEC0" transform="translate(783,439)"></path><path d="M0 0 C0.66 0 1.32 0 2 0 C1.51171875 6.0546875 1.51171875 6.0546875 1 8 C0.01 8.66 -0.98 9.32 -2 10 C-1.54177532 6.53058454 -1.10868317 3.32604951 0 0 Z " fill="#1995FA" transform="translate(527,794)"></path><path d="M0 0 C4.09305456 1.65296434 7.58983503 3.13546142 11 6 C10.67 6.66 10.34 7.32 10 8 C6.37 6.02 2.74 4.04 -1 2 C-0.67 1.34 -0.34 0.68 0 0 Z " fill="#13D7BC" transform="translate(740,657)"></path><path d="M0 0 C0.66 0.33 1.32 0.66 2 1 C-0.31 3.97 -2.62 6.94 -5 10 C-5.33 9.01 -5.66 8.02 -6 7 C-4.78515625 5.17578125 -4.78515625 5.17578125 -3.0625 3.3125 C-2.49660156 2.68988281 -1.93070313 2.06726563 -1.34765625 1.42578125 C-0.90292969 0.95527344 -0.45820312 0.48476563 0 0 Z " fill="#14A4C0" transform="translate(910,519)"></path><path d="M0 0 C0 0.66 0 1.32 0 2 C-6.625 5.875 -6.625 5.875 -10 7 C-10.33 6.34 -10.66 5.68 -11 5 C-9.54462432 4.16151196 -8.08559627 3.32936066 -6.625 2.5 C-5.81289063 2.0359375 -5.00078125 1.571875 -4.1640625 1.09375 C-2 0 -2 0 0 0 Z " fill="#19A3B2" transform="translate(746,492)"></path><path d="M0 0 C0.33 0 0.66 0 1 0 C1.22304441 1.74818591 1.4278645 3.49870323 1.625 5.25 C1.74101562 6.22453125 1.85703125 7.1990625 1.9765625 8.203125 C2.00112537 11.13429393 1.5312717 12.54528964 0 15 C-0.33 15 -0.66 15 -1 15 C-1.09038099 9.84828377 -0.84681133 5.08086796 0 0 Z " fill="#194993" transform="translate(441,340)"></path><path d="M0 0 C3.63 0 7.26 0 11 0 C10.67 0.99 10.34 1.98 10 3 C6.6875 3.1875 6.6875 3.1875 3 3 C2.01 2.01 1.02 1.02 0 0 Z " fill="#1FDDC0" transform="translate(699,503)"></path><path d="M0 0 C5.57142857 5.14285714 5.57142857 5.14285714 6 9 C5.01 9.495 5.01 9.495 4 10 C0 3.375 0 3.375 0 0 Z " fill="#16DABF" transform="translate(776,688)"></path><path d="M0 0 C0.33 0.99 0.66 1.98 1 3 C-2.0247093 7.70510336 -2.0247093 7.70510336 -5.14453125 8.6484375 C-5.75683594 8.76445313 -6.36914062 8.88046875 -7 9 C-6.02180976 7.68677212 -5.0424189 6.37443848 -4.0625 5.0625 C-3.51722656 4.33160156 -2.97195313 3.60070312 -2.41015625 2.84765625 C-1 1 -1 1 0 0 Z " fill="#17CECB" transform="translate(769,808)"></path><path d="M0 0 C0.66 0.66 1.32 1.32 2 2 C-1.465 4.97 -1.465 4.97 -5 8 C-5 7.01 -5 6.02 -5 5 C-4.360625 4.731875 -3.72125 4.46375 -3.0625 4.1875 C-0.66868314 3.11332248 -0.66868314 3.11332248 0 0 Z " fill="#148DB1" transform="translate(882,552)"></path><path d="M0 0 C2.56616632 3.84924948 2.55097676 6.4349304 3 11 C2.34 11 1.68 11 1 11 C-1.125 3.375 -1.125 3.375 0 0 Z " fill="#18C4C2" transform="translate(941,340)"></path><path d="M0 0 C0.66 0 1.32 0 2 0 C1.25 2.4375 1.25 2.4375 0 5 C-2.125 5.8125 -2.125 5.8125 -4 6 C-2.84826645 3.53199953 -1.95216435 1.95216435 0 0 Z " fill="#1BF5A3" transform="translate(303,188)"></path><path d="M0 0 C0.99 0.33 1.98 0.66 3 1 C-0.465 3.97 -0.465 3.97 -4 7 C-3.04065919 3.16263678 -2.76390737 2.40339772 0 0 Z " fill="#1497FB" transform="translate(445,872)"></path><path d="M0 0 C0.66 0.33 1.32 0.66 2 1 C-1.96 4.465 -1.96 4.465 -6 8 C-6.33 7.34 -6.66 6.68 -7 6 C-6.34 6 -5.68 6 -5 6 C-4.67 5.01 -4.34 4.02 -4 3 C-1.9375 1.3125 -1.9375 1.3125 0 0 Z " fill="#1494FA" transform="translate(455,864)"></path><path d="M0 0 C0.99 0.66 1.98 1.32 3 2 C0.69 3.65 -1.62 5.3 -4 7 C-2.92598892 4.08482708 -2.22189824 2.22189824 0 0 Z " fill="#1495F9" transform="translate(506,817)"></path><path d="M0 0 C2.31 1.98 4.62 3.96 7 6 C6.34 6.66 5.68 7.32 5 8 C0 2.25 0 2.25 0 0 Z " fill="#12D7BA" transform="translate(892,578)"></path><path d="M0 0 C1.32 0.99 2.64 1.98 4 3 C3.67 3.33 3.34 3.66 3 4 C2.63239269 6.32817964 2.29758419 8.6618385 2 11 C1.67 11 1.34 11 1 11 C0.67 7.37 0.34 3.74 0 0 Z " fill="#1BC8BB" transform="translate(783,401)"></path><path d="M0 0 C0.33 0 0.66 0 1 0 C1.33 3.96 1.66 7.92 2 12 C-1 9 -1 9 -1.07421875 6.73828125 C-0.94660156 5.93777344 -0.81898438 5.13726562 -0.6875 4.3125 C-0.56761719 3.50425781 -0.44773437 2.69601562 -0.32421875 1.86328125 C-0.21722656 1.24839844 -0.11023438 0.63351562 0 0 Z " fill="#21C5C7" transform="translate(946,362)"></path><path d="M0 0 C2.05825864 4.11651727 2.34008135 4.86808251 1 9 C0.01 9.495 0.01 9.495 -1 10 C-0.67 6.7 -0.34 3.4 0 0 Z " fill="#2295F9" transform="translate(365,859)"></path><path d="M0 0 C1.32 0.33 2.64 0.66 4 1 C3.01 2.485 3.01 2.485 2 4 C1.60986284 5.9896995 1.26797351 7.99019869 1 10 C0.67 10 0.34 10 0 10 C0 6.7 0 3.4 0 0 Z " fill="#06D4BE" transform="translate(573,503)"></path><path d="M0 0 C1.41687119 4.25061356 0.19320039 6.71851625 -1 11 C-3 7.25 -3 7.25 -3 5 C-2.34 5 -1.68 5 -1 5 C-0.67 3.35 -0.34 1.7 0 0 Z " fill="#26C0CD" transform="translate(943,446)"></path></svg>